<?xml version="1.0" encoding="utf-8"?>
<svg viewBox="193.7929 210.1264 126.7 27" width="126.7" height="27" xmlns="http://www.w3.org/2000/svg">
  <g class="st4" style="opacity: 0.6;" transform="matrix(0.9999999999999999, 0, 0, 0.9999999999999999, 87.09286499023436, 152.52638244628903)">
    <g>
      <path d="M168.5,81h-4.4c-0.4,0-0.7-0.3-0.7-0.7c0-0.4,0.3-0.7,0.7-0.7h4.2c0.4,0,0.7,0.3,0.7,0.7h1c0-1-0.8-1.8-1.8-1.8h-4.2 c-1,0-1.8,0.8-1.8,1.8c0,1,0.8,1.8,1.8,1.8h4.4c0.4,0,0.7,0.3,0.7,0.7c0,0.4-0.3,0.7-0.7,0.7l-4.4,0c-0.4,0-0.7-0.3-0.7-0.7h-1 c0,1,0.8,1.8,1.8,1.8h4.4c1,0,1.8-0.8,1.8-1.8C170.3,81.7,169.5,81,168.5,81"/>
      <path d="M155.5,84.5h5.7v-1h-5.7c-0.4,0-0.7-0.3-0.7-0.7V82h4.7v-1h-4.7v-0.7c0-0.4,0.3-0.7,0.7-0.7h5.7v-1h-5.7 c-1,0-1.8,0.8-1.8,1.8v2.5C153.8,83.7,154.6,84.5,155.5,84.5"/>
      <path d="M177,78.5h-3.9c-1,0-1.8,0.8-1.8,1.8v2.5c0,1,0.8,1.8,1.8,1.8h3.9c1,0,1.8-0.8,1.8-1.8v-2.5C178.8,79.3,178,78.5,177,78.5 M177.7,82.7c0,0.4-0.3,0.7-0.7,0.7h-3.9c-0.4,0-0.7-0.3-0.7-0.7v-2.5c0-0.4,0.3-0.7,0.7-0.7h3.9c0.4,0,0.7,0.3,0.7,0.7V82.7z M177.7,82.7"/>
      <path d="M193.1,78.5h-4.7v1h3.1c-0.1,0.2-0.2,0.5-0.2,0.7v4.2h1v-4.2c0-0.4,0.3-0.7,0.7-0.7h2.2v-1H193.1z M193.1,78.5"/>
      <path d="M151.5,84.5h1.2l-1.4-2.5c0.8-0.2,1.4-0.9,1.4-1.7c0-1-0.8-1.8-1.8-1.8h-4.2c-1,0-1.8,0.8-1.8,1.8v4.2h1V82h4.1 C150.5,82.7,151.5,84.5,151.5,84.5 M146,80.2c0-0.4,0.3-0.7,0.7-0.7h4.2c0.4,0,0.7,0.3,0.7,0.7c0,0.4-0.3,0.7-0.7,0.7H146V80.2z M146,80.2"/>
      <path d="M187.6,80.2c0-1-0.8-1.8-1.8-1.8h-4.2c-1,0-1.8,0.8-1.8,1.8v4.2h1V82h4.1c0.4,0.7,1.4,2.5,1.4,2.5h1.2l-1.4-2.5 C187,81.8,187.6,81.1,187.6,80.2 M185.8,81h-4.9v-0.7c0-0.4,0.3-0.7,0.7-0.7h4.2c0.4,0,0.7,0.3,0.7,0.7 C186.5,80.6,186.2,81,185.8,81"/>
    </g>
    <g>
      <rect x="207" y="57.7" width="2.6" height="14.9"/>
      <path d="M165.5,63.9h-11.1c-1,0-1.8-0.8-1.8-1.8c0-1,0.8-1.8,1.8-1.8h10.5c1,0,1.8,0.8,1.8,1.8h2.6c0-2.4-2-4.4-4.4-4.4h-10.5 c-2.4,0-4.4,2-4.4,4.4c0,2.4,2,4.4,4.4,4.4h11.1c1,0,1.8,0.8,1.8,1.8c0,1-0.8,1.8-1.8,1.8l-11.1,0c-1,0-1.8-0.8-1.8-1.8H150 c0,2.4,2,4.4,4.4,4.4h11.1c2.4,0,4.4-2,4.4-4.4C169.8,65.8,167.9,63.9,165.5,63.9"/>
      <path d="M129,62.1v6.2c0,2.4,2,4.4,4.4,4.4h14.2V70h-14.2c-1,0-1.8-0.8-1.8-1.8v-1.8h11.6v-2.6h-11.6v-1.8c0-1,0.8-1.8,1.8-1.8 h14.2v-2.6h-14.2C131,57.7,129,59.7,129,62.1"/>
      <path d="M205,72.6V70h-10.5c-1,0-1.8-0.8-1.8-1.8V57.7h-2.6v10.5c0,2.4,2,4.4,4.4,4.4H205z M205,72.6"/>
      <path d="M182.6,60.3h5.6v-2.6h-17.3v2.6h7.7c-0.2,0.5-0.4,1.1-0.4,1.8v10.6h2.6V62.1C180.8,61.1,181.6,60.3,182.6,60.3"/>
      <path d="M118.8,69.6c-0.3,0.3-0.7,0.5-1.2,0.5c-0.4,0-0.8-0.2-1.2-0.5c-0.1-0.3-6.7-11.9-6.7-11.9h-3l7.6,13.4 c0.1,0.1,0.1,0.2,0.2,0.3c1.7,1.7,4.5,1.7,6.2,0c0.1-0.1,0.2-0.2,0.2-0.3l7.5-13.4h-3C125.5,57.7,118.9,69.3,118.8,69.6"/>
      <path d="M233.4,72.6l-7.5-13.4c-0.1-0.1-0.1-0.2-0.2-0.3c-1.7-1.7-4.5-1.7-6.2,0c-0.1,0.1-0.2,0.2-0.2,0.3l-7.6,13.4h3 c0,0,0.7-1.3,1.7-3.1h12.3c1,1.8,1.7,3.1,1.7,3.1H233.4z M217.9,66.9c1.7-3,3.4-6,3.5-6.2c0.3-0.3,0.7-0.5,1.2-0.5 c0.4,0,0.8,0.2,1.2,0.5c0.1,0.1,1.8,3.2,3.5,6.2H217.9z M217.9,66.9"/>
    </g>
  </g>
</svg>