<?xml version="1.0" encoding="UTF-8"?><svg xmlns="http://www.w3.org/2000/svg" viewBox="0 0 619.96 34.77"><g id="a"/><g id="b"><g id="c"><g><path d="M464.11,14.34h-25.82c-2.28,0-4.14-1.85-4.14-4.14s1.85-4.13,4.14-4.13h24.39c2.28,0,4.13,1.86,4.13,4.13h6.08c0-5.62-4.58-10.21-10.21-10.21h-24.39c-5.63,0-10.21,4.58-10.21,10.21s4.58,10.21,10.21,10.21h25.82c2.28,0,4.14,1.86,4.14,4.14s-1.85,4.14-4.14,4.14h-25.82c-2.28,0-4.14-1.85-4.14-4.14h-6.07c0,5.63,4.58,10.21,10.21,10.21h25.82c5.62,0,10.21-4.59,10.21-10.21s-4.58-10.21-10.21-10.21"/><path d="M388.68,34.76h32.99v-6.07h-32.99c-2.28,0-4.14-1.86-4.14-4.14v-4.13h27.09v-6.08h-27.09v-4.14c0-2.27,1.86-4.13,4.14-4.13h32.99V0h-32.99c-5.62,0-10.21,4.58-10.21,10.21v14.34c0,5.63,4.58,10.21,10.21,10.21"/><path d="M513.71,0h-22.78c-5.64,0-10.21,4.58-10.21,10.21v14.34c0,5.63,4.57,10.21,10.21,10.21h22.78c5.63,0,10.21-4.57,10.21-10.21V10.21c0-5.63-4.58-10.21-10.21-10.21m4.14,24.55c0,2.28-1.86,4.14-4.14,4.14h-22.78c-2.29,0-4.15-1.85-4.15-4.13V10.21c0-2.28,1.86-4.14,4.15-4.14h22.78c2.29,0,4.14,1.86,4.14,4.14v14.34Z"/><path d="M607.06,0h-27.25V6.07h17.93c-.56,1.27-.89,2.67-.89,4.14v24.56h6.07V10.21c0-2.27,1.86-4.13,4.13-4.14h12.92V0h-12.91Z"/><path d="M365.09,34.76h6.97l-8.21-14.54c4.68-.93,8.21-5.06,8.21-10.01C372.07,4.58,367.49,0,361.86,0h-24.4c-5.63,0-10.21,4.58-10.21,10.21v24.55h6.07v-14.34h23.67c2.16,3.84,8.1,14.34,8.1,14.34m-31.77-24.55c0-2.27,1.86-4.14,4.14-4.14h24.4c2.28,0,4.14,1.86,4.14,4.14s-1.86,4.14-4.14,4.14h-28.53v-4.14Z"/><path d="M575.14,10.21c0-5.62-4.58-10.21-10.21-10.21h-24.39c-5.63,0-10.21,4.58-10.21,10.21v24.56h6.08v-14.34h23.66c2.16,3.83,8.1,14.34,8.1,14.34h6.97l-8.21-14.54c4.68-.94,8.21-5.07,8.21-10.02m-10.21,4.14h-28.52v-4.14c0-2.27,1.85-4.13,4.13-4.13h24.39c2.28,0,4.14,1.85,4.14,4.13s-1.86,4.14-4.14,4.14"/><rect x="233.31" y="0" width="6.07" height="34.76"/><path d="M136.57,14.34h-25.82c-2.28,0-4.13-1.85-4.13-4.14s1.85-4.13,4.13-4.13h24.39c2.28,0,4.13,1.86,4.13,4.13h6.07c0-5.62-4.58-10.21-10.21-10.21h-24.39c-5.63,0-10.21,4.58-10.21,10.21s4.58,10.21,10.21,10.21h25.82c2.28,0,4.14,1.86,4.14,4.14s-1.86,4.14-4.14,4.14h-25.82c-2.28,0-4.13-1.85-4.13-4.14h-6.07c0,5.63,4.58,10.21,10.21,10.21h25.82c5.63,0,10.21-4.59,10.21-10.21s-4.58-10.21-10.21-10.21"/><path d="M51.79,10.21v14.34c0,5.63,4.58,10.21,10.21,10.21h32.99v-6.07H61.99c-2.28,0-4.14-1.86-4.14-4.14v-4.14h27.08v-6.07h-27.08v-4.14c0-2.27,1.86-4.14,4.14-4.14h32.99V0H61.99C56.36,0,51.79,4.58,51.79,10.21"/><path d="M228.62,34.76v-6.07h-24.41c-2.28,0-4.13-1.85-4.13-4.14V0h-6.07V24.55c0,5.63,4.58,10.21,10.21,10.21h24.41Z"/><path d="M176.41,6.08h12.91V0h-40.16V6.08h17.93c-.56,1.26-.88,2.66-.88,4.13v24.55h6.07V10.21c0-2.28,1.85-4.13,4.13-4.13"/><path d="M28,27.63c-.76,.67-1.7,1.07-2.72,1.07s-1.96-.41-2.72-1.07C22.24,27.04,6.97,0,6.97,0H0L17.57,31.13c.13,.24,.3,.46,.5,.65,3.98,3.98,10.45,3.98,14.43,0,.2-.19,.36-.41,.5-.65L50.57,0h-6.97s-15.26,27.04-15.59,27.62"/><path d="M294.64,34.76l-17.57-31.11c-.14-.25-.3-.47-.5-.66-3.98-3.98-10.46-3.98-14.44,0-.2,.19-.36,.41-.5,.66l-17.57,31.11h6.98s1.73-3.08,4.05-7.17h28.52c2.31,4.1,4.05,7.17,4.05,7.17h6.97Zm-36.12-13.25c3.92-6.94,7.95-14.07,8.11-14.37,.76-.68,1.7-1.08,2.72-1.08s1.96,.4,2.72,1.08c.17,.29,4.2,7.43,8.12,14.37h-21.67Z"/></g></g></g></svg>